<svg xmlns="http://www.w3.org/2000/svg" width="29" height="29" viewBox="0 0 29 29"><defs><style>.a{fill:#fed524;}</style></defs><path class="a" d="M26.87,6.935l1.406-1.406a.85.85,0,0,0-.529-1.447l-2.609-.22-.22-2.609A.85.85,0,0,0,23.47.723L22.064,2.129A14.5,14.5,0,0,0,4.246,24.754,14.5,14.5,0,0,0,26.87,6.935ZM23.5,4.719a.85.85,0,0,0,.775.775l1.5.127L23.749,7.653l-2.216-.187L21.346,5.25l2.032-2.032ZM17.388,14.5a2.891,2.891,0,1,1-1.538-2.552L13.9,13.9a.85.85,0,1,0,1.2,1.2l1.952-1.951a2.869,2.869,0,0,1,.336,1.351Zm-.3-3.787a4.593,4.593,0,1,0,1.2,1.2l2.426-2.426a8,8,0,1,1-1.2-1.2ZM23.55,23.552a12.8,12.8,0,1,1-18.1-18.1,12.807,12.807,0,0,1,15.377-2.08l-.958.958a.849.849,0,0,0-.249.579c0,.031,0,.062,0,.093l.114,1.356a9.693,9.693,0,1,0,2.91,2.91L24,9.38l.071,0h.012l.034,0,.055,0,.034-.005.053-.01.033-.008.051-.016.033-.012.049-.021.031-.015.048-.027.028-.017.049-.035.023-.017a.842.842,0,0,0,.067-.06l.958-.958a12.806,12.806,0,0,1-2.08,15.377Zm0,0" transform="translate(0.001 -0.001)"/></svg>